<svg width="162" height="30" viewBox="0 0 162 30" fill="none" xmlns="http://www.w3.org/2000/svg">
<path d="M6.5 25.45C6.41667 25.4167 6.35833 25.3667 6.325 25.3C6.29167 25.2333 6.25833 25.1 6.225 24.9C6.225 24.7167 6.175 24.5833 6.075 24.5C5.975 24.4167 5.78333 24.3417 5.5 24.275C5.31667 24.0917 5.18333 23.8833 5.1 23.65C5.01667 23.4167 4.95 23.0333 4.9 22.5C4.86667 21.9667 4.81667 21.1667 4.75 20.1C4.78333 19.5167 4.80833 19.025 4.825 18.625C4.85833 18.225 4.89167 17.85 4.925 17.5C4.95833 17.15 4.99167 16.775 5.025 16.375C5.075 15.975 5.14167 15.475 5.225 14.875C5.19167 14.4917 5.20833 14.075 5.275 13.625C5.35833 13.175 5.375 12.8167 5.325 12.55C5.44167 12.1833 5.51667 11.7667 5.55 11.3C5.58333 10.8167 5.65833 10.3917 5.775 10.025C5.80833 9.74167 5.84167 9.475 5.875 9.225C5.925 8.975 5.95 8.76667 5.95 8.6C5.91667 8.26667 5.93333 7.95833 6 7.675C6.06667 7.39167 6.2 7.20833 6.4 7.125C6.5 7.09167 6.64167 7.06667 6.825 7.05C7.00833 7.03333 7.14167 7.05833 7.225 7.125C7.35833 7.19167 7.45 7.3 7.5 7.45C7.55 7.6 7.56667 7.76667 7.55 7.95C7.58333 8.13333 7.58333 8.45 7.55 8.9C7.53333 9.35 7.49167 9.85 7.425 10.4C7.35833 10.9333 7.26667 11.4583 7.15 11.975C7.01667 12.6583 6.90833 13.3583 6.825 14.075C6.75833 14.775 6.70833 15.4667 6.675 16.15C6.60833 17.5167 6.54167 18.65 6.475 19.55C6.40833 20.45 6.4 21.1 6.45 21.5C6.45 21.55 6.46667 21.6833 6.5 21.9C6.53333 22.1167 6.575 22.325 6.625 22.525C6.675 22.7083 6.725 22.8 6.775 22.8C6.90833 22.7833 7.03333 22.6667 7.15 22.45C7.28333 22.2333 7.4 21.9833 7.5 21.7C7.61667 21.4 7.725 21.1417 7.825 20.925C8.04167 20.5083 8.25833 20.0583 8.475 19.575C8.70833 19.075 8.90833 18.6 9.075 18.15C9.375 17.45 9.675 16.85 9.975 16.35C10.275 15.85 10.5583 15.2917 10.825 14.675C10.925 14.4083 11.1 14.025 11.35 13.525C11.6167 13.0083 11.8667 12.5333 12.1 12.1C12.3833 11.6667 12.65 11.25 12.9 10.85C13.1667 10.45 13.475 9.91667 13.825 9.25C14.3083 8.45 14.6833 7.9 14.95 7.6C15.2167 7.3 15.4833 7.15 15.75 7.15C15.9333 7.11667 16.0417 7.11667 16.075 7.15C16.125 7.16667 16.2083 7.25833 16.325 7.425C16.4583 7.60833 16.525 7.8 16.525 8C16.5417 8.18333 16.4583 8.44167 16.275 8.775C16.1083 9.10833 15.8083 9.58333 15.375 10.2C15.0417 10.7 14.6667 11.2833 14.25 11.95C13.85 12.6167 13.475 13.25 13.125 13.85C12.7917 14.4333 12.55 14.8667 12.4 15.15C12.3167 15.3333 12.2417 15.525 12.175 15.725C12.1083 15.925 12.0083 16.1083 11.875 16.275C11.7083 16.4417 11.4833 16.8 11.2 17.35C10.9167 17.9 10.6417 18.4417 10.375 18.975C10.075 19.675 9.83333 20.225 9.65 20.625C9.48333 21.0083 9.34167 21.325 9.225 21.575C9.125 21.825 9.025 22.0667 8.925 22.3C8.825 22.5333 8.7 22.825 8.55 23.175C8.46667 23.4583 8.35 23.75 8.2 24.05C8.06667 24.3667 7.99167 24.575 7.975 24.675C7.85833 24.8583 7.7 25.0167 7.5 25.15C7.31667 25.3 7.13333 25.4 6.95 25.45C6.76667 25.5 6.61667 25.5 6.5 25.45ZM15.0309 23.2C14.8975 23.0667 14.7975 22.9 14.7309 22.7C14.6809 22.5 14.6642 22.3 14.6809 22.1C14.6975 21.9 14.7392 21.7333 14.8059 21.6C14.8059 21.4667 14.8225 21.3667 14.8559 21.3C14.9059 21.2167 14.9225 21.1417 14.9059 21.075C14.8892 21.0083 14.9059 20.8917 14.9559 20.725C15.0059 20.5583 15.0559 20.4 15.1059 20.25C15.2225 19.9833 15.3475 19.6667 15.4809 19.3C15.6142 18.9167 15.7392 18.5417 15.8559 18.175C15.9725 17.8083 16.0725 17.4917 16.1559 17.225C16.2392 16.9583 16.2892 16.7917 16.3059 16.725C16.3059 16.525 16.4392 16.4167 16.7059 16.4C16.9059 16.3333 17.0559 16.3333 17.1559 16.4C17.2559 16.45 17.3892 16.6083 17.5559 16.875C17.6892 17.0083 17.7392 17.2083 17.7059 17.475C17.6725 17.7417 17.5642 18.075 17.3809 18.475C17.3142 18.6083 17.2309 18.8 17.1309 19.05C17.0475 19.3 16.9892 19.525 16.9559 19.725C16.8892 19.8583 16.8059 20.05 16.7059 20.3C16.6225 20.5333 16.5475 20.7583 16.4809 20.975C16.4475 21.0583 16.4142 21.1833 16.3809 21.35C16.3475 21.5 16.3059 21.6667 16.2559 21.85C16.2059 22.0167 16.1392 22.1667 16.0559 22.3C15.9059 22.9833 15.7642 23.3833 15.6309 23.5C15.5142 23.6167 15.3142 23.5167 15.0309 23.2ZM17.4559 13.05C17.3725 12.9667 17.2975 12.85 17.2309 12.7C17.1642 12.5333 17.1225 12.3833 17.1059 12.25C17.0892 12.1 17.1059 12.025 17.1559 12.025C17.2892 12.0083 17.4475 11.8667 17.6309 11.6C17.8142 11.3333 17.8892 11.1 17.8559 10.9C17.8559 10.8333 17.8809 10.775 17.9309 10.725C17.9809 10.6583 18.0392 10.6167 18.1059 10.6C18.3059 10.4667 18.4975 10.45 18.6809 10.55C18.8809 10.6333 19.0642 10.8083 19.2309 11.075C19.3809 11.3917 19.4225 11.6583 19.3559 11.875C19.2892 12.075 19.1059 12.3583 18.8059 12.725C18.5559 13.0583 18.3225 13.2417 18.1059 13.275C17.9059 13.3083 17.6892 13.2333 17.4559 13.05ZM22.0439 28.775C21.5773 28.9583 21.0856 28.925 20.5689 28.675C20.0689 28.4417 19.6356 28.0667 19.2689 27.55C19.2023 27.45 19.1189 27.2917 19.0189 27.075C18.9356 26.875 18.8523 26.6667 18.7689 26.45C18.7023 26.2333 18.6606 26.0417 18.6439 25.875C18.6273 25.7083 18.6439 25.6083 18.6939 25.575C18.7439 25.525 18.8273 25.5083 18.9439 25.525C19.0606 25.5417 19.1689 25.5833 19.2689 25.65C19.3856 25.7167 19.4606 25.8 19.4939 25.9C19.5439 26.0167 19.6189 26.1667 19.7189 26.35C19.8356 26.5333 19.9606 26.7 20.0939 26.85C20.2273 27 20.3273 27.0833 20.3939 27.1C20.7106 27.25 20.9439 27.3167 21.0939 27.3C21.2439 27.2833 21.3773 27.2333 21.4939 27.15C21.7773 26.9333 22.0106 26.65 22.1939 26.3C22.3773 25.95 22.5856 25.4083 22.8189 24.675C23.0023 24.0583 23.1856 23.4083 23.3689 22.725C23.5689 22.025 23.7439 21.4833 23.8939 21.1C23.9439 20.9 24.0023 20.7333 24.0689 20.6C24.1523 20.45 24.2273 20.3417 24.2939 20.275H24.4439C24.0773 20.5083 23.7523 20.775 23.4689 21.075C23.1856 21.375 22.8273 21.6167 22.3939 21.8C22.2939 21.9167 22.0439 21.9917 21.6439 22.025C21.2606 22.0417 20.8856 21.9917 20.5189 21.875C20.2856 21.7417 20.1106 21.6417 19.9939 21.575C19.8939 21.5083 19.8106 21.4167 19.7439 21.3C19.6939 21.1833 19.6189 21 19.5189 20.75C19.4023 20.5 19.3856 20.0917 19.4689 19.525C19.5523 18.9583 19.7023 18.3917 19.9189 17.825C20.1189 17.4083 20.4106 16.9583 20.7939 16.475C21.1773 15.9917 21.5856 15.5583 22.0189 15.175C22.4523 14.775 22.8439 14.525 23.1939 14.425C23.3273 14.3583 23.4689 14.3167 23.6189 14.3C23.7856 14.2667 24.0189 14.2917 24.3189 14.375C24.6023 14.4083 24.8189 14.475 24.9689 14.575C25.1189 14.6583 25.3606 14.8417 25.6939 15.125C25.9106 15.3417 26.0856 15.5583 26.2189 15.775C26.3689 15.9917 26.4856 16.2167 26.5689 16.45C26.6856 16.7 26.7273 16.9333 26.6939 17.15C26.6773 17.35 26.5856 17.5583 26.4189 17.775C26.2689 17.9917 26.1106 18.2083 25.9439 18.425C25.7773 18.6417 25.6523 18.9417 25.5689 19.325C25.4856 19.825 25.3523 20.3917 25.1689 21.025C24.9856 21.6417 24.8273 22.2167 24.6939 22.75L24.2939 24.3C23.8773 25.7167 23.4773 26.7667 23.0939 27.45C22.7273 28.15 22.3773 28.5917 22.0439 28.775ZM21.1439 20.775C21.4773 20.7583 21.7939 20.6917 22.0939 20.575C22.3939 20.4583 22.6856 20.2667 22.9689 20C23.2523 19.7167 23.5356 19.3583 23.8189 18.925C24.1023 18.525 24.3023 18.1083 24.4189 17.675C24.5356 17.225 24.5773 16.7917 24.5439 16.375C24.5273 16.1083 24.4856 15.9333 24.4189 15.85C24.3523 15.7667 24.2106 15.7417 23.9939 15.775C23.6773 15.825 23.3273 16 22.9439 16.3C22.5606 16.5833 22.2023 16.9417 21.8689 17.375C21.6189 17.7083 21.4106 18.1083 21.2439 18.575C21.0773 19.075 20.9773 19.55 20.9439 20C20.9106 20.45 20.9773 20.7083 21.1439 20.775ZM36.0557 23.7C35.889 23.7 35.714 23.6083 35.5307 23.425C35.364 23.2417 35.214 23.0167 35.0807 22.75C34.964 22.4667 34.9057 22.2 34.9057 21.95C34.9057 21.7 34.964 21.2333 35.0807 20.55C35.214 19.8667 35.3723 19.175 35.5557 18.475C35.689 18.0417 35.7307 17.7917 35.6807 17.725C35.6307 17.6583 35.4057 17.75 35.0057 18C34.7723 18.1167 34.564 18.2417 34.3807 18.375C34.1973 18.4917 34.039 18.625 33.9057 18.775C33.8223 18.8417 33.6973 18.95 33.5307 19.1C33.364 19.25 33.189 19.3917 33.0057 19.525C32.789 19.6917 32.514 19.925 32.1807 20.225C31.8473 20.525 31.514 20.825 31.1807 21.125C30.864 21.425 30.6223 21.6583 30.4557 21.825C30.4223 21.8917 30.3723 21.95 30.3057 22C30.239 22.05 30.164 22.0833 30.0807 22.1C29.9973 22.1 29.9057 22.0833 29.8057 22.05C29.6223 22 29.4473 21.8917 29.2807 21.725C29.1307 21.5583 29.0557 21.3667 29.0557 21.15C29.0557 20.9833 29.1223 20.7 29.2557 20.3C29.389 19.8833 29.564 19.3833 29.7807 18.8C30.014 18.2167 30.2807 17.6 30.5807 16.95C30.6307 16.8667 30.6723 16.7667 30.7057 16.65C30.739 16.5167 30.764 16.375 30.7807 16.225C30.814 16.075 30.8307 15.9333 30.8307 15.8C30.8307 15.7167 30.839 15.6333 30.8557 15.55C30.889 15.45 30.9223 15.3583 30.9557 15.275C31.0057 15.175 31.0473 15.1083 31.0807 15.075C31.1473 14.9417 31.264 14.9083 31.4307 14.975C31.5973 15.025 31.739 15.1417 31.8557 15.325C32.1057 15.5583 32.2307 15.85 32.2307 16.2C32.2473 16.55 32.164 16.9833 31.9807 17.5C31.914 17.6167 31.8557 17.7333 31.8057 17.85C31.7723 17.95 31.739 18.0417 31.7057 18.125C31.6723 18.1917 31.6473 18.25 31.6307 18.3C31.614 18.3333 31.6057 18.35 31.6057 18.35C31.6723 18.35 31.8223 18.275 32.0557 18.125C32.289 17.975 32.564 17.8083 32.8807 17.625C33.1307 17.4417 33.3473 17.275 33.5307 17.125C33.7307 16.9583 33.8973 16.8333 34.0307 16.75C34.164 16.65 34.2473 16.6 34.2807 16.6C34.3473 16.6 34.4307 16.575 34.5307 16.525C34.6307 16.475 34.714 16.4167 34.7807 16.35C34.8473 16.2833 34.8973 16.25 34.9307 16.25C34.9807 16.2333 35.0057 16.225 35.0057 16.225C35.0057 16.225 35.039 16.225 35.1057 16.225C35.1723 16.2083 35.239 16.1667 35.3057 16.1C35.439 16 35.614 15.975 35.8307 16.025C36.0473 16.0583 36.2473 16.1417 36.4307 16.275C36.614 16.4083 36.7057 16.5583 36.7057 16.725C36.7057 16.7917 36.7223 16.85 36.7557 16.9C36.8057 16.9333 36.8307 16.95 36.8307 16.95C36.964 16.95 37.0473 17.1583 37.0807 17.575C37.1307 17.9917 37.089 18.3917 36.9557 18.775C36.9557 19.025 36.9057 19.325 36.8057 19.675C36.7223 20.025 36.6473 20.3583 36.5807 20.675C36.4473 21.0917 36.3557 21.4583 36.3057 21.775C36.2557 22.0917 36.2473 22.3583 36.2807 22.575C36.314 22.7917 36.3723 22.9667 36.4557 23.1C36.5223 23.2167 36.5223 23.35 36.4557 23.5C36.389 23.6333 36.2557 23.7 36.0557 23.7ZM41.9605 24.075C41.2272 24.075 40.6272 23.8 40.1605 23.25C39.6939 22.6833 39.4689 21.9833 39.4855 21.15C39.5189 20.55 39.6355 19.9083 39.8355 19.225C40.0522 18.525 40.3355 17.8583 40.6855 17.225C41.0355 16.575 41.4189 16.0083 41.8355 15.525C42.2522 15.0417 42.6855 14.7 43.1355 14.5C43.3022 14.4167 43.4772 14.35 43.6605 14.3C43.8605 14.25 44.0605 14.225 44.2605 14.225C44.4439 14.225 44.6355 14.2583 44.8355 14.325C45.0355 14.375 45.2022 14.4333 45.3355 14.5C45.6189 14.6167 45.8355 14.7583 45.9855 14.925C46.1355 15.0917 46.2689 15.35 46.3855 15.7C46.4355 16.0167 46.4605 16.2417 46.4605 16.375C46.4605 16.5083 46.4189 16.7083 46.3355 16.975C46.1355 17.575 45.8772 18.0917 45.5605 18.525C45.2439 18.9583 44.8189 19.325 44.2855 19.625C44.1522 19.7083 43.9939 19.775 43.8105 19.825C43.6439 19.8583 43.4689 19.875 43.2855 19.875C42.9522 19.875 42.6272 19.8167 42.3105 19.7C42.0105 19.5667 41.7689 19.375 41.5855 19.125L41.4105 18.925L41.3355 19.125C41.1689 19.575 41.0355 19.9917 40.9355 20.375C40.8522 20.7583 40.8105 21.1083 40.8105 21.425C40.8105 21.625 40.8272 21.8167 40.8605 22C40.9105 22.1833 40.9772 22.3417 41.0605 22.475C41.1272 22.575 41.2355 22.65 41.3855 22.7C41.5522 22.7333 41.7272 22.75 41.9105 22.75C42.0272 22.75 42.1439 22.75 42.2605 22.75C42.3939 22.7333 42.5189 22.7 42.6355 22.65C42.9189 22.55 43.1439 22.4417 43.3105 22.325C43.4939 22.2083 43.6772 22.0833 43.8605 21.95L43.9605 21.9H43.9355C44.1355 21.8 44.3105 21.7 44.4605 21.6C44.6272 21.5 44.7105 21.45 44.7105 21.45C44.7772 21.45 44.8439 21.4083 44.9105 21.325C45.0439 21.2583 45.2105 21.2833 45.4105 21.4C45.6272 21.5167 45.7355 21.6667 45.7355 21.85C45.7189 21.9333 45.6439 22.0667 45.5105 22.25C45.3772 22.4167 45.2272 22.575 45.0605 22.725C44.9105 22.875 44.7855 22.9583 44.6855 22.975C44.6689 22.9917 44.6105 23.025 44.5105 23.075C44.4105 23.1083 44.3439 23.1417 44.3105 23.175H44.3355C44.1855 23.375 44.0355 23.475 43.8855 23.475H43.6855C43.6189 23.5917 43.4022 23.725 43.0355 23.875C42.6689 24.0083 42.3105 24.075 41.9605 24.075ZM43.0855 18.575C43.3855 18.575 43.6439 18.4917 43.8605 18.325C44.0939 18.1417 44.2939 17.9417 44.4605 17.725C44.7939 17.275 44.9855 16.8417 45.0355 16.425C45.1022 15.9917 45.0522 15.6917 44.8855 15.525C44.7855 15.475 44.6939 15.45 44.6105 15.45C44.5439 15.4333 44.4022 15.4583 44.1855 15.525C44.0355 15.5583 43.8272 15.6833 43.5605 15.9C43.2939 16.1167 43.0272 16.3583 42.7605 16.625C42.5105 16.8917 42.3189 17.1167 42.1855 17.3L41.8605 17.825C41.9939 17.775 42.1189 17.75 42.2355 17.75C42.3689 17.7333 42.4439 17.7417 42.4605 17.775C42.4605 17.925 42.4855 18.0667 42.5355 18.2C42.6022 18.3167 42.6772 18.4083 42.7605 18.475C42.8605 18.5417 42.9689 18.575 43.0855 18.575ZM49.9904 23.65C49.1571 23.65 48.5488 23.35 48.1654 22.75C48.0488 22.5833 47.9904 22.4167 47.9904 22.25C48.0071 22.0667 48.0571 21.9417 48.1404 21.875C48.2404 21.8083 48.3571 21.8667 48.4904 22.05C48.7238 22.1833 49.0571 22.25 49.4904 22.25C49.7071 22.25 49.9321 22.2333 50.1654 22.2C50.3988 22.15 50.6321 22.0833 50.8654 22C51.1154 21.8833 51.2821 21.7833 51.3654 21.7C51.4488 21.6 51.4321 21.5167 51.3154 21.45H51.3404C50.9071 21.3333 50.4654 21.15 50.0154 20.9C49.5821 20.6333 49.2071 20.35 48.8904 20.05C48.5738 19.7333 48.3904 19.45 48.3404 19.2C48.2071 18.6833 48.2404 18.1583 48.4404 17.625C48.6404 17.075 48.9238 16.5917 49.2904 16.175C49.4238 16.0917 49.5904 15.9917 49.7904 15.875C49.9904 15.7417 50.1488 15.6667 50.2654 15.65V15.675C50.5821 15.3417 50.9654 15.075 51.4154 14.875C51.8821 14.675 52.3738 14.4917 52.8904 14.325L53.2654 14.275C53.4654 14.2417 53.6321 14.225 53.7654 14.225C53.7488 14.225 53.7821 14.2417 53.8654 14.275C53.9488 14.2917 54.0238 14.3083 54.0904 14.325C54.1904 14.375 54.2738 14.4 54.3404 14.4C54.5571 14.4333 54.7571 14.5333 54.9404 14.7C55.1238 14.8667 55.2654 15.0667 55.3654 15.3C55.4821 15.5167 55.5238 15.725 55.4904 15.925C55.4571 16.2417 55.3571 16.525 55.1904 16.775C55.0404 17.025 54.8571 17.1667 54.6404 17.2C54.6738 17.1833 54.6488 17.1583 54.5654 17.125C54.4988 17.075 54.4238 17.025 54.3404 16.975L54.2654 17.025C54.2654 17.025 54.2571 17.0083 54.2404 16.975C54.2404 16.925 54.2238 16.8667 54.1904 16.8C54.1404 16.7 54.1154 16.5917 54.1154 16.475C54.1154 16.3417 54.1238 16.2 54.1404 16.05C54.1738 15.8667 54.1738 15.7583 54.1404 15.725C54.1238 15.6917 54.0154 15.6667 53.8154 15.65C53.5821 15.6 53.2404 15.6417 52.7904 15.775C52.3571 15.9083 51.9904 16.0917 51.6904 16.325C51.3238 16.5583 51.0154 16.7833 50.7654 17C50.5154 17.2 50.3154 17.4 50.1654 17.6C50.0154 17.7833 49.8821 18 49.7654 18.25C49.6821 18.3667 49.6071 18.4833 49.5404 18.6C49.4904 18.7 49.4654 18.7917 49.4654 18.875C49.4654 19.0583 49.5988 19.25 49.8654 19.45C50.1488 19.6333 50.5654 19.85 51.1154 20.1C51.5488 20.2833 51.9154 20.4833 52.2154 20.7C52.5154 20.9167 52.7238 21.1667 52.8404 21.45C52.8738 21.5167 52.8821 21.6 52.8654 21.7C52.8654 21.7833 52.8488 21.8417 52.8154 21.875C52.8488 21.9083 52.8654 21.9333 52.8654 21.95V21.925C52.9988 22.125 52.9988 22.3333 52.8654 22.55C52.7488 22.7667 52.5404 22.9583 52.2404 23.125C51.9571 23.275 51.6071 23.3917 51.1904 23.475H51.2154C50.9988 23.5417 50.7821 23.5917 50.5654 23.625C50.3654 23.6417 50.1738 23.65 49.9904 23.65ZM57.1109 22.65C56.9943 22.6667 56.8693 22.6667 56.7359 22.65C56.6193 22.6167 56.5026 22.5583 56.3859 22.475C56.2526 22.3417 56.1609 22.2417 56.1109 22.175C56.0609 22.0917 56.0443 21.9667 56.0609 21.8C56.0943 21.6333 56.1526 21.375 56.2359 21.025C56.3193 20.7583 56.4193 20.3917 56.5359 19.925C56.6526 19.4417 56.7776 18.9667 56.9109 18.5C56.9609 18.2333 57.0276 17.9583 57.1109 17.675C57.2109 17.3917 57.3109 17.1333 57.4109 16.9C57.5109 16.65 57.5859 16.4583 57.6359 16.325C57.7693 15.8583 57.8943 15.45 58.0109 15.1C58.1443 14.75 58.3026 14.35 58.4859 13.9C58.6693 13.4333 58.8943 12.8167 59.1609 12.05C59.5276 11.05 59.8026 10.2917 59.9859 9.775C60.1859 9.24167 60.3276 8.85833 60.4109 8.625C60.5109 8.375 60.5776 8.18333 60.6109 8.05C60.6109 7.91667 60.6443 7.81667 60.7109 7.75C60.7943 7.68333 60.8943 7.65 61.0109 7.65C61.2443 7.65 61.4276 7.76667 61.5609 8C61.7109 8.21667 61.8026 8.48333 61.8359 8.8C61.8693 9.1 61.8193 9.38333 61.6859 9.65C61.4193 10.25 61.1359 10.9667 60.8359 11.8C60.5359 12.6167 60.2443 13.425 59.9609 14.225C59.6776 15.0083 59.4109 15.675 59.1609 16.225C59.1609 16.2917 59.1359 16.4083 59.0859 16.575C59.0359 16.7417 58.9776 16.8917 58.9109 17.025C58.8443 17.1583 58.7776 17.2833 58.7109 17.4C58.6609 17.5167 58.6359 17.575 58.6359 17.575C58.6359 17.6417 58.6109 17.7667 58.5609 17.95C58.5109 18.1333 58.4443 18.3583 58.3609 18.625C58.2943 18.825 58.2109 19.0833 58.1109 19.4C58.0276 19.7167 57.9693 19.9833 57.9359 20.2C58.0193 20.05 58.1943 19.825 58.4609 19.525C58.7276 19.225 58.9776 18.9667 59.2109 18.75C59.4776 18.5167 59.7776 18.2583 60.1109 17.975C60.4443 17.6917 60.7109 17.4833 60.9109 17.35C61.1109 17.2167 61.2859 17.1 61.4359 17C61.6026 16.8833 61.6859 16.825 61.6859 16.825C61.6859 16.7583 61.7109 16.725 61.7609 16.725C61.8276 16.7083 61.8943 16.7 61.9609 16.7C62.0276 16.7 62.0609 16.6917 62.0609 16.675C62.0776 16.6583 62.0859 16.6167 62.0859 16.55C62.0859 16.4667 62.1776 16.3917 62.3609 16.325C62.5609 16.2583 62.7859 16.2083 63.0359 16.175C63.3026 16.125 63.5193 16.1 63.6859 16.1C63.8859 16.1 64.0443 16.1417 64.1609 16.225C64.2776 16.3083 64.4276 16.4917 64.6109 16.775C64.8109 17.0417 64.9359 17.3667 64.9859 17.75C65.0526 18.1167 65.0193 18.5 64.8859 18.9C64.8859 19.0333 64.8609 19.225 64.8109 19.475C64.7776 19.7083 64.7609 19.9583 64.7609 20.225L64.6109 21.025H65.0109C65.1443 21.025 65.2693 21.05 65.3859 21.1C65.5026 21.1333 65.5609 21.15 65.5609 21.15C65.6276 21.2167 65.6943 21.2833 65.7609 21.35C65.8276 21.4 65.8943 21.425 65.9609 21.425C66.1609 21.425 66.2359 21.5083 66.1859 21.675C66.1359 21.825 66.0109 21.9667 65.8109 22.1C65.4109 22.3667 65.0443 22.5 64.7109 22.5C64.3943 22.5 64.1026 22.3667 63.8359 22.1C63.5693 21.8167 63.4026 21.5 63.3359 21.15C63.2693 20.8 63.3026 20.3583 63.4359 19.825C63.5026 19.0917 63.5359 18.5583 63.5359 18.225C63.5526 17.875 63.4693 17.7 63.2859 17.7C63.1193 17.7 62.8276 17.8167 62.4109 18.05C61.9943 18.2667 61.5276 18.5667 61.0109 18.95C60.4943 19.3333 59.9859 19.7583 59.4859 20.225C58.9859 20.6917 58.5693 21.175 58.2359 21.675C58.0359 21.925 57.8443 22.15 57.6609 22.35C57.4776 22.5333 57.2943 22.6333 57.1109 22.65ZM77.8623 25.45C77.779 25.4167 77.7206 25.3667 77.6873 25.3C77.654 25.2333 77.6206 25.1 77.5873 24.9C77.5873 24.7167 77.5373 24.5833 77.4373 24.5C77.3373 24.4167 77.1456 24.3417 76.8623 24.275C76.679 24.0917 76.5456 23.8833 76.4623 23.65C76.379 23.4167 76.3123 23.0333 76.2623 22.5C76.229 21.9667 76.179 21.1667 76.1123 20.1C76.1456 19.5167 76.1706 19.025 76.1873 18.625C76.2206 18.225 76.254 17.85 76.2873 17.5C76.3206 17.15 76.354 16.775 76.3873 16.375C76.4373 15.975 76.504 15.475 76.5873 14.875C76.554 14.4917 76.5706 14.075 76.6373 13.625C76.7206 13.175 76.7373 12.8167 76.6873 12.55C76.804 12.1833 76.879 11.7667 76.9123 11.3C76.9456 10.8167 77.0206 10.3917 77.1373 10.025C77.1706 9.74167 77.204 9.475 77.2373 9.225C77.2873 8.975 77.3123 8.76667 77.3123 8.6C77.279 8.26667 77.2956 7.95833 77.3623 7.675C77.429 7.39167 77.5623 7.20833 77.7623 7.125C77.8623 7.09167 78.004 7.06667 78.1873 7.05C78.3706 7.03333 78.504 7.05833 78.5873 7.125C78.7206 7.19167 78.8123 7.3 78.8623 7.45C78.9123 7.6 78.929 7.76667 78.9123 7.95C78.9456 8.13333 78.9456 8.45 78.9123 8.9C78.8956 9.35 78.854 9.85 78.7873 10.4C78.7206 10.9333 78.629 11.4583 78.5123 11.975C78.379 12.6583 78.2706 13.3583 78.1873 14.075C78.1206 14.775 78.0706 15.4667 78.0373 16.15C77.9706 17.5167 77.904 18.65 77.8373 19.55C77.7706 20.45 77.7623 21.1 77.8123 21.5C77.8123 21.55 77.829 21.6833 77.8623 21.9C77.8956 22.1167 77.9373 22.325 77.9873 22.525C78.0373 22.7083 78.0873 22.8 78.1373 22.8C78.2706 22.7833 78.3956 22.6667 78.5123 22.45C78.6456 22.2333 78.7623 21.9833 78.8623 21.7C78.979 21.4 79.0873 21.1417 79.1873 20.925C79.404 20.5083 79.6206 20.0583 79.8373 19.575C80.0706 19.075 80.2706 18.6 80.4373 18.15C80.7373 17.45 81.0373 16.85 81.3373 16.35C81.6373 15.85 81.9206 15.2917 82.1873 14.675C82.2873 14.4083 82.4623 14.025 82.7123 13.525C82.979 13.0083 83.229 12.5333 83.4623 12.1C83.7456 11.6667 84.0123 11.25 84.2623 10.85C84.529 10.45 84.8373 9.91667 85.1873 9.25C85.6706 8.45 86.0456 7.9 86.3123 7.6C86.579 7.3 86.8456 7.15 87.1123 7.15C87.2956 7.11667 87.404 7.11667 87.4373 7.15C87.4873 7.16667 87.5706 7.25833 87.6873 7.425C87.8206 7.60833 87.8873 7.8 87.8873 8C87.904 8.18333 87.8206 8.44167 87.6373 8.775C87.4706 9.10833 87.1706 9.58333 86.7373 10.2C86.404 10.7 86.029 11.2833 85.6123 11.95C85.2123 12.6167 84.8373 13.25 84.4873 13.85C84.154 14.4333 83.9123 14.8667 83.7623 15.15C83.679 15.3333 83.604 15.525 83.5373 15.725C83.4706 15.925 83.3706 16.1083 83.2373 16.275C83.0706 16.4417 82.8456 16.8 82.5623 17.35C82.279 17.9 82.004 18.4417 81.7373 18.975C81.4373 19.675 81.1956 20.225 81.0123 20.625C80.8456 21.0083 80.704 21.325 80.5873 21.575C80.4873 21.825 80.3873 22.0667 80.2873 22.3C80.1873 22.5333 80.0623 22.825 79.9123 23.175C79.829 23.4583 79.7123 23.75 79.5623 24.05C79.429 24.3667 79.354 24.575 79.3373 24.675C79.2206 24.8583 79.0623 25.0167 78.8623 25.15C78.679 25.3 78.4956 25.4 78.3123 25.45C78.129 25.5 77.979 25.5 77.8623 25.45ZM86.9113 23.175C86.7113 23.2083 86.4947 23.175 86.2613 23.075C86.028 22.975 85.8197 22.8333 85.6363 22.65C85.4697 22.4667 85.3613 22.275 85.3113 22.075C85.2447 21.725 85.2863 21.2917 85.4363 20.775C85.603 20.2417 85.8363 19.6833 86.1363 19.1C86.453 18.5 86.803 17.925 87.1863 17.375C87.5863 16.825 87.9947 16.35 88.4113 15.95C88.8447 15.5333 89.2447 15.25 89.6113 15.1C89.7947 14.9833 89.9363 14.9083 90.0363 14.875C90.153 14.825 90.2697 14.8167 90.3863 14.85C90.5197 14.8833 90.7113 14.9667 90.9613 15.1C91.1947 15.1667 91.3697 15.2417 91.4863 15.325C91.603 15.4083 91.753 15.575 91.9363 15.825C92.0697 16.075 92.1697 16.325 92.2363 16.575C92.303 16.825 92.3613 17.1083 92.4113 17.425C92.5447 17.8417 92.5947 18.1167 92.5613 18.25C92.528 18.3667 92.478 18.4583 92.4113 18.525C92.278 18.6917 92.2447 18.775 92.3113 18.775C92.3113 18.775 92.303 18.8083 92.2863 18.875C92.2863 18.925 92.253 19.0083 92.1863 19.125C92.0697 19.4917 91.978 19.875 91.9113 20.275C91.8613 20.6583 91.8697 20.975 91.9363 21.225C92.0697 21.5917 92.3113 21.8083 92.6613 21.875C93.0113 21.9417 93.3697 21.7917 93.7363 21.425C93.9197 21.2917 94.0947 21.175 94.2613 21.075C94.428 20.9583 94.5113 20.9667 94.5113 21.1C94.5113 21.1 94.5363 21.125 94.5863 21.175C94.6363 21.2083 94.6947 21.225 94.7613 21.225C94.8447 21.225 94.8947 21.2583 94.9113 21.325C94.9447 21.3917 94.9447 21.4833 94.9113 21.6C94.8947 21.7 94.8447 21.8167 94.7613 21.95C94.5113 22.2 94.3863 22.3667 94.3863 22.45C94.3863 22.45 94.353 22.4833 94.2863 22.55C94.2363 22.6 94.1447 22.6833 94.0113 22.8C93.7113 22.9833 93.328 23.075 92.8613 23.075C92.4113 23.075 92.0613 22.9833 91.8113 22.8C91.5613 22.6167 91.328 22.3667 91.1113 22.05C90.9113 21.7333 90.778 21.4583 90.7113 21.225L90.5863 20.975L89.8613 21.45C89.678 21.6333 89.478 21.8083 89.2613 21.975C89.0613 22.1417 88.928 22.2583 88.8613 22.325C88.8113 22.3917 88.753 22.45 88.6863 22.5C88.6363 22.55 88.578 22.575 88.5113 22.575C88.4447 22.575 88.3863 22.575 88.3363 22.575C88.2863 22.575 88.2613 22.575 88.2613 22.575C88.2613 22.6417 88.178 22.725 88.0113 22.825C87.8613 22.925 87.678 23.0083 87.4613 23.075C87.2613 23.1417 87.078 23.175 86.9113 23.175ZM86.6613 21.825C86.7613 21.825 86.9363 21.75 87.1863 21.6C87.453 21.4333 87.7447 21.2417 88.0613 21.025C88.3947 20.8083 88.6863 20.5917 88.9363 20.375C89.203 20.1583 89.3863 19.9917 89.4863 19.875C89.553 19.8083 89.6613 19.7 89.8113 19.55C89.9613 19.3833 90.0947 19.2417 90.2113 19.125C90.5947 18.6917 90.8613 18.2167 91.0113 17.7C91.1613 17.1667 91.1447 16.75 90.9613 16.45C90.8947 16.2667 90.8113 16.1667 90.7113 16.15C90.6113 16.1333 90.403 16.1917 90.0863 16.325C89.8863 16.4417 89.6363 16.6667 89.3363 17C89.053 17.3167 88.7447 17.6917 88.4113 18.125C88.0947 18.5417 87.7947 18.975 87.5113 19.425C87.228 19.875 86.9947 20.2917 86.8113 20.675C86.628 21.0583 86.5363 21.3583 86.5363 21.575C86.5363 21.6417 86.553 21.7 86.5863 21.75C86.6363 21.8 86.6613 21.825 86.6613 21.825ZM97.1402 23.225C97.0902 23.2417 97.0069 23.2333 96.8902 23.2C96.7736 23.1667 96.6569 23.125 96.5402 23.075C96.4236 23.025 96.3486 22.9833 96.3152 22.95C96.2486 22.8833 96.1819 22.7833 96.1152 22.65C96.0652 22.5167 96.0652 22.325 96.1152 22.075C96.1652 21.8083 96.3319 21.4667 96.6152 21.05C96.6986 20.8833 96.7986 20.6333 96.9152 20.3C97.0319 19.9667 97.1486 19.6167 97.2652 19.25C97.3986 18.8667 97.5152 18.525 97.6152 18.225C97.7319 17.925 97.8152 17.7167 97.8652 17.6C97.8986 17.3167 97.8819 17.1167 97.8152 17C97.7652 16.8667 97.6236 16.7917 97.3902 16.775C97.2236 16.775 97.0902 16.7583 96.9902 16.725C96.9069 16.6917 96.8652 16.525 96.8652 16.225C96.8986 15.9917 96.9569 15.8333 97.0402 15.75C97.1402 15.65 97.2736 15.5417 97.4402 15.425C97.6069 15.3417 97.7736 15.2833 97.9402 15.25C98.1236 15.2167 98.2986 15.2083 98.4652 15.225C98.6319 15.2417 98.7652 15.3 98.8652 15.4C98.9819 15.4667 99.0569 15.6167 99.0902 15.85C99.1236 16.0667 99.1402 16.2917 99.1402 16.525C99.1569 16.7583 99.1736 16.9333 99.1902 17.05C99.3569 16.9167 99.5819 16.7333 99.8652 16.5C100.165 16.25 100.424 16.0167 100.64 15.8C100.907 15.6167 101.224 15.4333 101.59 15.25C101.957 15.05 102.224 14.95 102.39 14.95C102.574 14.95 102.757 15 102.94 15.1C103.124 15.1833 103.249 15.2917 103.315 15.425C103.482 15.7083 103.557 15.9583 103.54 16.175C103.54 16.3917 103.449 16.6167 103.265 16.85C103.099 17.0667 102.89 17.2167 102.64 17.3C102.407 17.3833 102.257 17.425 102.19 17.425C102.09 17.425 101.965 17.35 101.815 17.2C101.665 17.05 101.582 16.925 101.565 16.825C101.565 16.775 101.457 16.825 101.24 16.975C101.04 17.1083 100.815 17.2833 100.565 17.5C100.315 17.7 100.107 17.8833 99.9402 18.05C99.6569 18.4 99.3569 18.875 99.0402 19.475C98.7236 20.075 98.3486 20.8 97.9152 21.65C97.7152 22.0667 97.5736 22.425 97.4902 22.725C97.4069 23.0083 97.2902 23.175 97.1402 23.225ZM104.799 23.1C104.732 22.9667 104.649 22.8667 104.549 22.8C104.449 22.7167 104.399 22.6417 104.399 22.575C104.399 22.5083 104.391 22.4417 104.374 22.375C104.374 22.2917 104.341 22.2167 104.274 22.15C104.191 22.05 104.199 21.825 104.299 21.475C104.399 21.1083 104.566 20.6667 104.799 20.15C105.032 19.6167 105.307 19.0583 105.624 18.475C105.757 18.3417 105.891 18.1667 106.024 17.95C106.157 17.7333 106.257 17.5917 106.324 17.525C106.324 17.4583 106.349 17.4 106.399 17.35C106.449 17.2833 106.507 17.25 106.574 17.25V17.1C106.574 17.0167 106.649 16.875 106.799 16.675C106.966 16.475 107.166 16.2583 107.399 16.025C107.632 15.775 107.874 15.5417 108.124 15.325C108.374 15.0917 108.582 14.925 108.749 14.825C109.099 14.5917 109.457 14.45 109.824 14.4C110.207 14.35 110.532 14.4333 110.799 14.65C110.849 14.7 110.932 14.7833 111.049 14.9C111.166 15.0167 111.299 15.15 111.449 15.3C111.616 15.4333 111.782 15.575 111.949 15.725L112.874 16.55L112.424 17.8C112.207 18.4667 112.149 19.05 112.249 19.55C112.366 20.05 112.532 20.4833 112.749 20.85C112.832 21.0333 112.999 21.2083 113.249 21.375C113.516 21.5417 113.766 21.6417 113.999 21.675C114.132 21.6917 114.257 21.7417 114.374 21.825C114.491 21.9083 114.549 22.0417 114.549 22.225C114.549 22.3917 114.516 22.525 114.449 22.625C114.382 22.725 114.266 22.7917 114.099 22.825C113.549 22.8917 113.032 22.7583 112.549 22.425C112.082 22.0917 111.649 21.5417 111.249 20.775C111.182 20.675 111.091 20.4917 110.974 20.225C110.874 19.9417 110.816 19.7583 110.799 19.675C110.732 19.7583 110.607 19.9167 110.424 20.15C110.241 20.3667 110.099 20.525 109.999 20.625C108.816 21.825 107.791 22.6333 106.924 23.05C106.074 23.45 105.366 23.4667 104.799 23.1ZM105.699 21.7C105.699 21.8167 105.874 21.8167 106.224 21.7C106.591 21.5667 106.982 21.3333 107.399 21C107.966 20.5167 108.532 19.9833 109.099 19.4C109.682 18.8167 110.149 18.275 110.499 17.775L111.049 16.875C110.882 16.4917 110.699 16.2333 110.499 16.1C110.316 15.95 110.157 15.875 110.024 15.875C109.807 15.875 109.482 16.075 109.049 16.475C108.632 16.875 108.182 17.4083 107.699 18.075C107.216 18.7417 106.757 19.475 106.324 20.275C106.157 20.6083 106.007 20.9333 105.874 21.25C105.757 21.55 105.699 21.7 105.699 21.7ZM116.737 22.9C116.67 22.9 116.57 22.8583 116.437 22.775C116.32 22.675 116.229 22.5917 116.162 22.525C116.045 22.3917 115.97 22.2583 115.937 22.125C115.92 21.9917 115.912 21.6917 115.912 21.225C115.912 20.6917 116.02 20.1167 116.237 19.5C116.454 18.8667 116.82 17.9833 117.337 16.85L118.162 15.1C118.229 14.9667 118.287 14.8667 118.337 14.8C118.404 14.7333 118.462 14.6667 118.512 14.6C118.579 14.6 118.637 14.6 118.687 14.6C118.737 14.6 118.762 14.6 118.762 14.6C118.895 14.6 119.029 14.6833 119.162 14.85C119.295 15 119.395 15.1667 119.462 15.35C119.462 15.5667 119.429 15.7917 119.362 16.025C119.312 16.2583 119.112 16.6083 118.762 17.075C118.645 17.2583 118.487 17.5667 118.287 18C118.104 18.4333 117.979 18.8083 117.912 19.125C117.895 19.1417 117.862 19.2167 117.812 19.35C117.762 19.4667 117.704 19.6 117.637 19.75C117.587 19.9 117.529 20.0417 117.462 20.175L117.337 20.725L119.012 19C119.795 18.2167 120.429 17.6583 120.912 17.325C121.395 16.9917 121.779 16.85 122.062 16.9C122.345 16.95 122.587 17.175 122.787 17.575C122.904 17.7583 122.987 17.925 123.037 18.075C123.104 18.2083 123.145 18.3917 123.162 18.625C123.179 18.8583 123.162 19.2083 123.112 19.675V21.225C123.362 21.1583 123.562 21.1 123.712 21.05C123.862 20.9833 124.02 20.9167 124.187 20.85C124.337 20.7833 124.512 20.725 124.712 20.675C124.912 20.6083 125.162 20.5667 125.462 20.55C125.445 20.7667 125.37 21 125.237 21.25C125.104 21.4833 124.937 21.7083 124.737 21.925C124.537 22.1417 124.312 22.3167 124.062 22.45C123.829 22.5833 123.595 22.65 123.362 22.65C123.145 22.65 122.904 22.5417 122.637 22.325C122.37 22.1083 122.179 21.8667 122.062 21.6C121.995 21.4167 121.954 21.2167 121.937 21C121.937 20.7833 121.937 20.3833 121.937 19.8V18.875C121.937 18.6083 121.854 18.5333 121.687 18.65C121.537 18.75 121.412 18.8417 121.312 18.925C121.062 19.1417 120.795 19.3917 120.512 19.675C120.245 19.9583 119.97 20.25 119.687 20.55C118.92 21.35 118.279 21.9417 117.762 22.325C117.262 22.7083 116.92 22.9 116.737 22.9ZM128.917 23.275C128.784 23.3083 128.609 23.325 128.392 23.325C128.175 23.3083 127.984 23.2833 127.817 23.25C127.667 23.2 127.592 23.15 127.592 23.1C127.592 23.0167 127.55 22.975 127.467 22.975C127.467 22.975 127.425 22.9417 127.342 22.875C127.275 22.8083 127.167 22.7417 127.017 22.675C126.867 22.4417 126.792 22.1917 126.792 21.925C126.792 21.6417 126.867 21.2 127.017 20.6C127.067 20.1833 127.225 19.7 127.492 19.15C127.775 18.5833 128.117 18.0083 128.517 17.425C128.917 16.8417 129.334 16.3167 129.767 15.85C130.217 15.3833 130.625 15.0417 130.992 14.825C131.225 14.5917 131.509 14.4667 131.842 14.45C132.175 14.4333 132.492 14.5083 132.792 14.675C132.959 14.7583 133.125 14.8917 133.292 15.075C133.459 15.2583 133.617 15.4583 133.767 15.675C133.917 15.8917 134.042 16.1083 134.142 16.325C134.192 16.5083 134.217 16.675 134.217 16.825C134.234 16.9583 134.234 17.125 134.217 17.325C134.217 17.525 134.192 17.825 134.142 18.225C134.059 18.525 133.984 18.8917 133.917 19.325C133.867 19.7583 133.842 20.1333 133.842 20.45C133.809 20.7667 133.842 20.9917 133.942 21.125C134.059 21.2583 134.225 21.2667 134.442 21.15C134.642 21.05 134.834 21.0083 135.017 21.025C135.2 21.025 135.342 21.075 135.442 21.175C135.559 21.275 135.617 21.425 135.617 21.625C135.617 21.825 135.517 22.0333 135.317 22.25C135.134 22.45 134.9 22.625 134.617 22.775C134.35 22.9083 134.092 22.975 133.842 22.975C133.659 22.975 133.484 22.8667 133.317 22.65C133.15 22.4167 133 22.1417 132.867 21.825C132.75 21.4917 132.642 21.175 132.542 20.875L132.392 20.3L131.317 21.325C131.1 21.5583 130.884 21.775 130.667 21.975C130.467 22.1583 130.342 22.2917 130.292 22.375C130.209 22.525 130.05 22.675 129.817 22.825C129.6 22.975 129.3 23.125 128.917 23.275ZM128.992 21.8C129.275 21.6333 129.6 21.3917 129.967 21.075C130.334 20.7417 130.692 20.3833 131.042 20C131.392 19.6 131.684 19.2333 131.917 18.9C132.2 18.5167 132.417 18.1583 132.567 17.825C132.717 17.4917 132.825 17.175 132.892 16.875C132.825 16.6917 132.717 16.5 132.567 16.3C132.417 16.0833 132.284 15.9667 132.167 15.95C131.8 15.95 131.409 16.1833 130.992 16.65C130.592 17.1 130.2 17.5917 129.817 18.125C129.75 18.2083 129.659 18.3417 129.542 18.525C129.425 18.7083 129.309 18.8833 129.192 19.05C129.092 19.2 129.025 19.3 128.992 19.35C128.942 19.4167 128.842 19.6083 128.692 19.925C128.559 20.225 128.425 20.5333 128.292 20.85C128.159 21.15 128.092 21.35 128.092 21.45C128.092 21.55 128.1 21.6583 128.117 21.775C128.15 21.8917 128.234 21.9667 128.367 22C128.5 22.0333 128.709 21.9667 128.992 21.8ZM138.351 24.1C138.035 23.9667 137.735 23.7917 137.451 23.575C137.168 23.3417 136.985 23.15 136.901 23C136.901 22.85 136.926 22.75 136.976 22.7C137.026 22.6333 137.168 22.6083 137.401 22.625C137.651 22.625 138.051 22.6583 138.601 22.725C138.801 22.725 139.051 22.7083 139.351 22.675C139.651 22.6417 139.926 22.5917 140.176 22.525C140.443 22.4583 140.593 22.375 140.626 22.275C140.71 22.275 140.726 22.25 140.676 22.2C140.626 22.1333 140.568 22.0667 140.501 22C140.435 22 140.36 21.975 140.276 21.925C140.193 21.8583 140.118 21.825 140.051 21.825C140.051 21.7417 139.968 21.65 139.801 21.55C139.651 21.4333 139.493 21.3417 139.326 21.275C138.96 20.975 138.643 20.7083 138.376 20.475C138.11 20.225 138.01 20.0583 138.076 19.975C138.076 19.9083 138.076 19.875 138.076 19.875C138.076 19.8583 138.076 19.85 138.076 19.85C137.96 19.85 137.826 19.6833 137.676 19.35C137.543 19.0167 137.476 18.7167 137.476 18.45C137.476 18.25 137.535 18 137.651 17.7C137.768 17.3833 137.926 17.0583 138.126 16.725C138.326 16.3917 138.535 16.1167 138.751 15.9C139.051 15.6167 139.426 15.3167 139.876 15C140.326 14.6667 140.768 14.375 141.201 14.125C141.651 13.8583 142.026 13.6833 142.326 13.6C142.626 13.4833 142.901 13.425 143.151 13.425C143.418 13.425 143.651 13.4833 143.851 13.6C144.018 13.6833 144.168 13.8083 144.301 13.975C144.451 14.125 144.576 14.2833 144.676 14.45C144.793 14.6 144.868 14.7333 144.901 14.85C144.901 15.05 144.885 15.275 144.851 15.525C144.818 15.7583 144.768 15.9667 144.701 16.15C144.651 16.3333 144.568 16.425 144.451 16.425C144.451 16.425 144.426 16.4333 144.376 16.45C144.343 16.45 144.326 16.4917 144.326 16.575C144.326 16.7417 144.201 16.9333 143.951 17.15C143.635 17.3667 143.36 17.5 143.126 17.55C142.893 17.5833 142.751 17.4917 142.701 17.275C142.651 17.2083 142.618 17.15 142.601 17.1C142.585 17.05 142.543 17.025 142.476 17.025C142.476 17.025 142.451 17 142.401 16.95C142.351 16.9 142.326 16.8167 142.326 16.7C142.326 16.6333 142.351 16.575 142.401 16.525C142.451 16.4583 142.476 16.425 142.476 16.425C142.56 16.425 142.668 16.3333 142.801 16.15C142.935 15.95 143.051 15.7417 143.151 15.525C143.268 15.2917 143.326 15.1333 143.326 15.05C143.326 14.95 143.31 14.8917 143.276 14.875C143.26 14.8583 143.185 14.85 143.051 14.85C142.818 14.95 142.535 15.0833 142.201 15.25C141.868 15.4167 141.551 15.5833 141.251 15.75C140.968 15.9 140.76 16.0417 140.626 16.175C140.56 16.2917 140.518 16.3667 140.501 16.4C140.485 16.4167 140.443 16.425 140.376 16.425C140.376 16.3583 140.318 16.3917 140.201 16.525C140.101 16.6417 139.968 16.8083 139.801 17.025C139.651 17.2417 139.501 17.4583 139.351 17.675C139.218 17.875 139.118 18.025 139.051 18.125C139.018 18.1583 138.976 18.2583 138.926 18.425C138.893 18.575 138.876 18.7167 138.876 18.85C138.81 19.05 138.818 19.1917 138.901 19.275C138.985 19.3417 139.168 19.4917 139.451 19.725C140.035 20.1583 140.493 20.5167 140.826 20.8C141.16 21.0833 141.41 21.3167 141.576 21.5C141.743 21.6833 141.843 21.85 141.876 22C142.176 22.5 142.268 22.8833 142.151 23.15C142.035 23.4167 141.751 23.65 141.301 23.85C141.135 23.9333 140.86 24 140.476 24.05C140.093 24.1 139.701 24.125 139.301 24.125C138.901 24.1417 138.585 24.1333 138.351 24.1ZM145.822 22.775C145.755 22.775 145.672 22.7583 145.572 22.725C145.488 22.675 145.447 22.65 145.447 22.65C145.447 22.5833 145.422 22.5 145.372 22.4C145.338 22.3 145.322 22.2167 145.322 22.15C145.205 22.0833 145.138 22.0167 145.122 21.95C145.105 21.8667 145.13 21.7333 145.197 21.55C145.297 21.3833 145.43 21.1167 145.597 20.75C145.763 20.3667 145.938 19.9583 146.122 19.525C146.305 19.075 146.48 18.6333 146.647 18.2C146.813 17.7667 146.955 17.4 147.072 17.1C147.188 16.7833 147.255 16.5917 147.272 16.525C147.272 16.4583 147.297 16.375 147.347 16.275C147.397 16.175 147.455 16.0917 147.522 16.025C147.655 15.9083 147.797 15.9 147.947 16C148.097 16.0833 148.222 16.2333 148.322 16.45C148.438 16.65 148.497 16.875 148.497 17.125C148.497 17.2417 148.413 17.5417 148.247 18.025C148.08 18.4917 147.855 19.05 147.572 19.7C147.305 20.35 147.005 21.0083 146.672 21.675C146.422 22.1583 146.263 22.4667 146.197 22.6C146.13 22.7167 146.005 22.775 145.822 22.775ZM149.497 13.3C149.297 13.3 149.08 13.225 148.847 13.075C148.63 12.9083 148.438 12.7083 148.272 12.475C148.122 12.225 148.047 11.975 148.047 11.725C148.047 11.6417 148.097 11.525 148.197 11.375C148.297 11.225 148.397 11.075 148.497 10.925C148.597 10.775 148.647 10.6833 148.647 10.65C148.78 10.65 148.88 10.6583 148.947 10.675C149.03 10.675 149.13 10.7083 149.247 10.775C149.43 11.1917 149.655 11.5333 149.922 11.8C150.205 12.0667 150.347 12.2917 150.347 12.475C150.347 12.8417 150.313 13.075 150.247 13.175C150.18 13.2583 149.93 13.3 149.497 13.3Z" fill="black"/>
</svg>
