<svg xmlns="http://www.w3.org/2000/svg" xmlns:xlink="http://www.w3.org/1999/xlink" fill="none" viewBox="0 0 248 248" aria-hidden="true">
  <path fill="url(#paint0_linear_2452_11835)" d="M152.266 123.716h94.275c.802 0 1.459.656 1.459 1.459v121.067c0 .81-.664 1.474-1.474 1.466-67.274-.78-121.669-55.137-122.522-122.387v121.22c0 .803-.657 1.459-1.46 1.459H1.474c-.81 0-1.474-.664-1.467-1.474C.795 178.721 56 124.008 123.996 124H1.459C.657 124 0 123.344 0 122.541V1.474C0 .664.664 0 1.474.008c67.274.78 121.669 55.137 122.522 122.387V1.46c0-.803.657-1.46 1.46-1.46h121.07c.81 0 1.474.664 1.467 1.474-.679 58.224-41.486 106.801-96.055 119.367-1.686.386-1.401 2.875.336 2.875h-.008Z"></path>
  <path fill-opacity="0.6" fill="url(#pattern-scroll-trigger-pin-windmill-0)" d="M152.266 123.716h94.275c.802 0 1.459.656 1.459 1.459v121.067c0 .81-.664 1.474-1.474 1.466-67.274-.78-121.669-55.137-122.522-122.387v121.22c0 .803-.657 1.459-1.46 1.459H1.474c-.81 0-1.474-.664-1.467-1.474C.795 178.721 56 124.008 123.996 124H1.459C.657 124 0 123.344 0 122.541V1.474C0 .664.664 0 1.474.008c67.274.78 121.669 55.137 122.522 122.387V1.46c0-.803.657-1.46 1.46-1.46h121.07c.81 0 1.474.664 1.467 1.474-.679 58.224-41.486 106.801-96.055 119.367-1.686.386-1.401 2.875.336 2.875h-.008Z" style="mix-blend-mode:multiply"></path>
  <path fill="url(#paint1_linear_2452_11835)" d="M152.266 123.716h94.275c.802 0 1.459.656 1.459 1.459v121.067c0 .81-.664 1.474-1.474 1.466-67.274-.78-121.669-55.137-122.522-122.387v121.22c0 .803-.657 1.459-1.46 1.459H1.474c-.81 0-1.474-.664-1.467-1.474C.795 178.721 56 124.008 123.996 124H1.459C.657 124 0 123.344 0 122.541V1.474C0 .664.664 0 1.474.008c67.274.78 121.669 55.137 122.522 122.387V1.46c0-.803.657-1.46 1.46-1.46h121.07c.81 0 1.474.664 1.467 1.474-.679 58.224-41.486 106.801-96.055 119.367-1.686.386-1.401 2.875.336 2.875h-.008Z"></path>
  <path fill-opacity="0.6" fill="url(#pattern-scroll-trigger-pin-windmill-0)" d="M152.266 123.716h94.275c.802 0 1.459.656 1.459 1.459v121.067c0 .81-.664 1.474-1.474 1.466-67.274-.78-121.669-55.137-122.522-122.387v121.22c0 .803-.657 1.459-1.46 1.459H1.474c-.81 0-1.474-.664-1.467-1.474C.795 178.721 56 124.008 123.996 124H1.459C.657 124 0 123.344 0 122.541V1.474C0 .664.664 0 1.474.008c67.274.78 121.669 55.137 122.522 122.387V1.46c0-.803.657-1.46 1.46-1.46h121.07c.81 0 1.474.664 1.467 1.474-.679 58.224-41.486 106.801-96.055 119.367-1.686.386-1.401 2.875.336 2.875h-.008Z" style="mix-blend-mode:multiply"></path>
  <defs>
    <linearGradient id="paint0_linear_2452_11835" x1="218" x2="-47.283" y1="258" y2="153.706" gradientUnits="userSpaceOnUse">
      <stop offset=".27" stop-color="#FFD3FD"></stop>
      <stop offset=".838" stop-color="#806EFF"></stop>
    </linearGradient>
    <linearGradient id="paint1_linear_2452_11835" x1="-21.183" x2="223.712" y1="-7.807" y2="329.472" gradientUnits="userSpaceOnUse">
      <stop offset=".27" stop-color="#FEC5FB"></stop>
      <stop offset=".838" stop-color="#00BAE2"></stop>
    </linearGradient>
    <pattern id="pattern-scroll-trigger-pin-windmill-0" width=".403" height=".403" patternContentUnits="objectBoundingBox">
      <use xlink:href="#svg-noise" transform="scale(.0008)"></use>
    </pattern>
  </defs>
</svg>