<svg width="29" height="29" viewBox="0 0 29 29" fill="none" xmlns="http://www.w3.org/2000/svg">
<path d="M24.5385 27H4.25438C3.94311 27.0018 3.64217 26.8945 3.40965 26.6988C3.17713 26.5031 3.02952 26.233 2.99528 25.9405L2.0006 11.8274C1.99536 11.6697 2.02433 11.5127 2.08575 11.366C2.14717 11.2193 2.23972 11.0861 2.3577 10.9746C2.47568 10.863 2.6166 10.7755 2.77173 10.7174C2.92686 10.6594 3.09294 10.632 3.2597 10.6369H25.7409C26.0748 10.6369 26.3951 10.7623 26.6312 10.9856C26.8673 11.2089 27 11.5117 27 11.8274L25.7976 25.9524C25.7604 26.2427 25.6116 26.51 25.3793 26.7032C25.1471 26.8965 24.8478 27.0021 24.5385 27V27Z" stroke="black" stroke-width="3" stroke-linecap="round" stroke-linejoin="round"/>
<path d="M8.20312 14.5V7.95237C8.20313 6.3737 8.86641 4.85969 10.047 3.7434C11.2277 2.62712 12.8289 2 14.4986 2C16.1683 2 17.7696 2.62712 18.9502 3.7434C20.1308 4.85969 20.7941 6.3737 20.7941 7.95237V14.5" stroke="black" stroke-width="3" stroke-linecap="round" stroke-linejoin="round"/>
</svg>
